<?xml version="1.0" standalone="no"?>
<!DOCTYPE svg PUBLIC "-//W3C//DTD SVG 20010904//EN"
 "http://www.w3.org/TR/2001/REC-SVG-20010904/DTD/svg10.dtd">
<svg version="1.0" xmlns="http://www.w3.org/2000/svg"
 width="260.000000pt" height="260.000000pt" viewBox="0 0 260.000000 260.000000"
 preserveAspectRatio="xMidYMid meet">
<metadata>
Created by potrace 1.14, written by Peter Selinger 2001-2017
</metadata>
<g transform="translate(0.000000,260.000000) scale(0.100000,-0.100000)"
fill="#000000" stroke="none">
<path d="M0 1300 l0 -1300 1300 0 1300 0 0 1300 0 1300 -1300 0 -1300 0 0
-1300z m1405 725 c32 -16 55 -50 55 -83 0 -9 22 -62 49 -117 122 -248 126
-261 126 -365 l0 -96 -44 -67 c-28 -43 -78 -97 -142 -153 -54 -47 -120 -115
-146 -150 -92 -126 -328 -270 -459 -281 -66 -6 -148 9 -201 36 -54 27 -189
140 -218 181 -45 64 -39 96 31 176 99 113 130 156 168 227 31 58 36 78 36 133
0 63 -1 66 -44 112 -24 26 -69 80 -100 121 -44 59 -56 82 -56 111 0 44 14 60
56 60 29 0 39 -9 95 -82 34 -46 80 -101 102 -122 58 -57 77 -106 77 -203 0
-64 -5 -91 -23 -130 -40 -86 -79 -146 -155 -242 l-75 -95 52 -48 c79 -73 131
-100 204 -105 57 -4 69 -1 157 41 111 53 194 116 254 195 24 32 88 97 143 146
135 122 163 162 163 237 0 44 -7 72 -26 111 -15 28 -35 75 -45 105 -10 29 -27
66 -38 81 -11 16 -25 41 -31 57 -6 16 -25 51 -42 77 -33 51 -38 87 -17 113 11
13 40 30 57 33 2 1 19 -6 37 -14z"/>
</g>
</svg>
